<mxfile host="Electron" modified="2024-04-06T10:30:13.192Z" agent="Mozilla/5.0 (Windows NT 10.0; Win64; x64) AppleWebKit/537.36 (KHTML, like Gecko) draw.io/24.1.0 Chrome/120.0.6099.109 Electron/28.1.0 Safari/537.36" etag="PR43Vs-Eoh39iSiUTfgN" version="24.1.0" type="device">
  <diagram name="Сторінка-1" id="uAzbx7v3SxuRT0PB5ymo">
    <mxGraphModel dx="1050" dy="621" grid="1" gridSize="10" guides="1" tooltips="1" connect="1" arrows="1" fold="1" page="1" pageScale="1" pageWidth="827" pageHeight="1169" math="0" shadow="0">
      <root>
        <mxCell id="0" />
        <mxCell id="1" parent="0" />
        <mxCell id="nWtQAn88ZrS0DdybVbt5-3" style="rounded=0;orthogonalLoop=1;jettySize=auto;html=1;exitX=0.5;exitY=1;exitDx=0;exitDy=0;" parent="1" source="nWtQAn88ZrS0DdybVbt5-1" target="nWtQAn88ZrS0DdybVbt5-2" edge="1">
          <mxGeometry relative="1" as="geometry" />
        </mxCell>
        <mxCell id="nWtQAn88ZrS0DdybVbt5-6" value="" style="rounded=0;orthogonalLoop=1;jettySize=auto;html=1;" parent="1" source="nWtQAn88ZrS0DdybVbt5-1" target="nWtQAn88ZrS0DdybVbt5-5" edge="1">
          <mxGeometry relative="1" as="geometry" />
        </mxCell>
        <mxCell id="nWtQAn88ZrS0DdybVbt5-7" value="CarDeleted" style="edgeLabel;html=1;align=center;verticalAlign=middle;resizable=0;points=[];" parent="nWtQAn88ZrS0DdybVbt5-6" vertex="1" connectable="0">
          <mxGeometry x="0.1041" y="1" relative="1" as="geometry">
            <mxPoint as="offset" />
          </mxGeometry>
        </mxCell>
        <mxCell id="nWtQAn88ZrS0DdybVbt5-1" value="CarWarehouseManager" style="rounded=1;whiteSpace=wrap;html=1;fillColor=#d5e8d4;strokeColor=#82b366;" parent="1" vertex="1">
          <mxGeometry x="280" y="310" width="150" height="60" as="geometry" />
        </mxCell>
        <mxCell id="nWtQAn88ZrS0DdybVbt5-2" value="CarDB" style="shape=cylinder3;whiteSpace=wrap;html=1;boundedLbl=1;backgroundOutline=1;size=15;fillColor=#dae8fc;strokeColor=#6c8ebf;" parent="1" vertex="1">
          <mxGeometry x="310" y="390" width="60" height="60" as="geometry" />
        </mxCell>
        <mxCell id="nWtQAn88ZrS0DdybVbt5-10" value="" style="rounded=0;orthogonalLoop=1;jettySize=auto;html=1;exitX=0;exitY=0;exitDx=0;exitDy=0;" parent="1" source="nWtQAn88ZrS0DdybVbt5-5" target="nWtQAn88ZrS0DdybVbt5-9" edge="1">
          <mxGeometry relative="1" as="geometry">
            <mxPoint x="600" y="580" as="sourcePoint" />
            <Array as="points">
              <mxPoint x="220" y="490" />
            </Array>
          </mxGeometry>
        </mxCell>
        <mxCell id="nWtQAn88ZrS0DdybVbt5-11" value="&lt;span style=&quot;font-size: 12px; text-wrap: wrap; background-color: rgb(251, 251, 251);&quot;&gt;Notify Car Delete&lt;/span&gt;" style="edgeLabel;html=1;align=center;verticalAlign=middle;resizable=0;points=[];" parent="nWtQAn88ZrS0DdybVbt5-10" vertex="1" connectable="0">
          <mxGeometry x="-0.135" y="-1" relative="1" as="geometry">
            <mxPoint x="-18" y="-13" as="offset" />
          </mxGeometry>
        </mxCell>
        <mxCell id="nWtQAn88ZrS0DdybVbt5-42" style="rounded=0;orthogonalLoop=1;jettySize=auto;html=1;exitX=0.75;exitY=1;exitDx=0;exitDy=0;" parent="1" source="nWtQAn88ZrS0DdybVbt5-5" target="nWtQAn88ZrS0DdybVbt5-41" edge="1">
          <mxGeometry relative="1" as="geometry" />
        </mxCell>
        <mxCell id="nWtQAn88ZrS0DdybVbt5-43" value="Find order Id" style="edgeLabel;html=1;align=center;verticalAlign=middle;resizable=0;points=[];" parent="nWtQAn88ZrS0DdybVbt5-42" vertex="1" connectable="0">
          <mxGeometry x="-0.3381" relative="1" as="geometry">
            <mxPoint as="offset" />
          </mxGeometry>
        </mxCell>
        <mxCell id="nWtQAn88ZrS0DdybVbt5-44" style="rounded=0;orthogonalLoop=1;jettySize=auto;html=1;exitX=1;exitY=0.5;exitDx=0;exitDy=0;" parent="1" source="nWtQAn88ZrS0DdybVbt5-5" target="nWtQAn88ZrS0DdybVbt5-35" edge="1">
          <mxGeometry relative="1" as="geometry">
            <Array as="points" />
          </mxGeometry>
        </mxCell>
        <mxCell id="nWtQAn88ZrS0DdybVbt5-45" value="Notify car arrival&amp;nbsp;" style="edgeLabel;html=1;align=center;verticalAlign=middle;resizable=0;points=[];" parent="nWtQAn88ZrS0DdybVbt5-44" vertex="1" connectable="0">
          <mxGeometry x="0.0028" y="1" relative="1" as="geometry">
            <mxPoint y="1" as="offset" />
          </mxGeometry>
        </mxCell>
        <mxCell id="nWtQAn88ZrS0DdybVbt5-5" value="ChangeCarDealership&lt;div&gt;OrderStatusManager&lt;/div&gt;" style="rounded=1;whiteSpace=wrap;html=1;fillColor=#d5e8d4;strokeColor=#82b366;" parent="1" vertex="1">
          <mxGeometry x="394" y="520" width="186" height="60" as="geometry" />
        </mxCell>
        <mxCell id="nWtQAn88ZrS0DdybVbt5-17" style="rounded=0;orthogonalLoop=1;jettySize=auto;html=1;exitX=0.25;exitY=1;exitDx=0;exitDy=0;" parent="1" source="nWtQAn88ZrS0DdybVbt5-5" target="nWtQAn88ZrS0DdybVbt5-14" edge="1">
          <mxGeometry relative="1" as="geometry">
            <mxPoint x="320" y="730" as="sourcePoint" />
          </mxGeometry>
        </mxCell>
        <mxCell id="nWtQAn88ZrS0DdybVbt5-18" value="Find Customer&lt;div&gt;&amp;nbsp;Order Id&lt;/div&gt;" style="edgeLabel;html=1;align=center;verticalAlign=middle;resizable=0;points=[];" parent="nWtQAn88ZrS0DdybVbt5-17" vertex="1" connectable="0">
          <mxGeometry x="-0.1759" y="1" relative="1" as="geometry">
            <mxPoint as="offset" />
          </mxGeometry>
        </mxCell>
        <mxCell id="nWtQAn88ZrS0DdybVbt5-9" value="CustomerOrderStatusNotifier" style="rounded=1;whiteSpace=wrap;html=1;fillColor=#fff2cc;strokeColor=#d6b656;" parent="1" vertex="1">
          <mxGeometry x="100" y="250" width="166" height="60" as="geometry" />
        </mxCell>
        <mxCell id="nWtQAn88ZrS0DdybVbt5-14" value="Cusomer&lt;div&gt;OrderBD&lt;/div&gt;" style="shape=cylinder3;whiteSpace=wrap;html=1;boundedLbl=1;backgroundOutline=1;size=15;fillColor=#dae8fc;strokeColor=#6c8ebf;" parent="1" vertex="1">
          <mxGeometry x="410" y="635" width="75" height="65" as="geometry" />
        </mxCell>
        <mxCell id="nWtQAn88ZrS0DdybVbt5-23" style="rounded=0;orthogonalLoop=1;jettySize=auto;html=1;" parent="1" source="nWtQAn88ZrS0DdybVbt5-20" target="nWtQAn88ZrS0DdybVbt5-1" edge="1">
          <mxGeometry relative="1" as="geometry" />
        </mxCell>
        <mxCell id="nWtQAn88ZrS0DdybVbt5-24" value="Change car status" style="edgeLabel;html=1;align=center;verticalAlign=middle;resizable=0;points=[];" parent="nWtQAn88ZrS0DdybVbt5-23" vertex="1" connectable="0">
          <mxGeometry x="-0.1143" y="1" relative="1" as="geometry">
            <mxPoint as="offset" />
          </mxGeometry>
        </mxCell>
        <mxCell id="nWtQAn88ZrS0DdybVbt5-25" style="rounded=0;orthogonalLoop=1;jettySize=auto;html=1;exitX=0;exitY=1;exitDx=0;exitDy=0;entryX=0.5;entryY=0;entryDx=0;entryDy=0;" parent="1" source="nWtQAn88ZrS0DdybVbt5-20" target="nWtQAn88ZrS0DdybVbt5-9" edge="1">
          <mxGeometry relative="1" as="geometry" />
        </mxCell>
        <mxCell id="nWtQAn88ZrS0DdybVbt5-26" value="Change order status" style="edgeLabel;html=1;align=center;verticalAlign=middle;resizable=0;points=[];" parent="nWtQAn88ZrS0DdybVbt5-25" vertex="1" connectable="0">
          <mxGeometry x="-0.1022" y="1" relative="1" as="geometry">
            <mxPoint as="offset" />
          </mxGeometry>
        </mxCell>
        <mxCell id="nWtQAn88ZrS0DdybVbt5-20" value="CustomerOrderManager" style="rounded=1;whiteSpace=wrap;html=1;fillColor=#d5e8d4;strokeColor=#82b366;" parent="1" vertex="1">
          <mxGeometry x="320" y="160" width="140" height="40" as="geometry" />
        </mxCell>
        <mxCell id="nWtQAn88ZrS0DdybVbt5-21" value="Cusomer&lt;div&gt;OrderBD&lt;/div&gt;" style="shape=cylinder3;whiteSpace=wrap;html=1;boundedLbl=1;backgroundOutline=1;size=15;fillColor=#dae8fc;strokeColor=#6c8ebf;" parent="1" vertex="1">
          <mxGeometry x="357.5" y="70" width="65" height="60" as="geometry" />
        </mxCell>
        <mxCell id="nWtQAn88ZrS0DdybVbt5-36" style="rounded=0;orthogonalLoop=1;jettySize=auto;html=1;exitX=1;exitY=1;exitDx=0;exitDy=0;" parent="1" source="nWtQAn88ZrS0DdybVbt5-27" target="nWtQAn88ZrS0DdybVbt5-35" edge="1">
          <mxGeometry relative="1" as="geometry" />
        </mxCell>
        <mxCell id="nWtQAn88ZrS0DdybVbt5-40" style="rounded=0;orthogonalLoop=1;jettySize=auto;html=1;exitX=0.5;exitY=1;exitDx=0;exitDy=0;" parent="1" source="nWtQAn88ZrS0DdybVbt5-27" target="nWtQAn88ZrS0DdybVbt5-37" edge="1">
          <mxGeometry relative="1" as="geometry" />
        </mxCell>
        <mxCell id="nWtQAn88ZrS0DdybVbt5-48" value="Create supplier order" style="edgeLabel;html=1;align=center;verticalAlign=middle;resizable=0;points=[];" parent="nWtQAn88ZrS0DdybVbt5-40" vertex="1" connectable="0">
          <mxGeometry x="-0.1663" y="2" relative="1" as="geometry">
            <mxPoint as="offset" />
          </mxGeometry>
        </mxCell>
        <mxCell id="nWtQAn88ZrS0DdybVbt5-27" value="PurchaseOrderManager" style="rounded=1;whiteSpace=wrap;html=1;fillColor=#d5e8d4;strokeColor=#82b366;" parent="1" vertex="1">
          <mxGeometry x="580" y="160" width="170" height="40" as="geometry" />
        </mxCell>
        <mxCell id="nWtQAn88ZrS0DdybVbt5-28" value="Purchase&lt;div&gt;OrderDB&lt;/div&gt;" style="shape=cylinder3;whiteSpace=wrap;html=1;boundedLbl=1;backgroundOutline=1;size=15;fillColor=#dae8fc;strokeColor=#6c8ebf;" parent="1" vertex="1">
          <mxGeometry x="635" y="70" width="60" height="60" as="geometry" />
        </mxCell>
        <mxCell id="nWtQAn88ZrS0DdybVbt5-32" style="edgeStyle=orthogonalEdgeStyle;rounded=0;orthogonalLoop=1;jettySize=auto;html=1;exitX=0.5;exitY=0;exitDx=0;exitDy=0;entryX=0.5;entryY=1;entryDx=0;entryDy=0;entryPerimeter=0;" parent="1" source="nWtQAn88ZrS0DdybVbt5-20" target="nWtQAn88ZrS0DdybVbt5-21" edge="1">
          <mxGeometry relative="1" as="geometry" />
        </mxCell>
        <mxCell id="nWtQAn88ZrS0DdybVbt5-34" style="rounded=0;orthogonalLoop=1;jettySize=auto;html=1;exitX=0.5;exitY=0;exitDx=0;exitDy=0;entryX=0.5;entryY=1;entryDx=0;entryDy=0;entryPerimeter=0;" parent="1" source="nWtQAn88ZrS0DdybVbt5-27" target="nWtQAn88ZrS0DdybVbt5-28" edge="1">
          <mxGeometry relative="1" as="geometry" />
        </mxCell>
        <mxCell id="nWtQAn88ZrS0DdybVbt5-35" value="PurhaseOrderStatusNotifier" style="rounded=1;whiteSpace=wrap;html=1;fillColor=#fff2cc;strokeColor=#d6b656;" parent="1" vertex="1">
          <mxGeometry x="700" y="260" width="160" height="60" as="geometry" />
        </mxCell>
        <mxCell id="nWtQAn88ZrS0DdybVbt5-39" style="rounded=0;orthogonalLoop=1;jettySize=auto;html=1;exitX=0.25;exitY=1;exitDx=0;exitDy=0;" parent="1" source="nWtQAn88ZrS0DdybVbt5-37" target="nWtQAn88ZrS0DdybVbt5-38" edge="1">
          <mxGeometry relative="1" as="geometry" />
        </mxCell>
        <mxCell id="nWtQAn88ZrS0DdybVbt5-49" style="edgeStyle=orthogonalEdgeStyle;rounded=0;orthogonalLoop=1;jettySize=auto;html=1;exitX=0;exitY=0.5;exitDx=0;exitDy=0;entryX=1;entryY=0.5;entryDx=0;entryDy=0;" parent="1" source="nWtQAn88ZrS0DdybVbt5-37" target="nWtQAn88ZrS0DdybVbt5-1" edge="1">
          <mxGeometry relative="1" as="geometry" />
        </mxCell>
        <mxCell id="nWtQAn88ZrS0DdybVbt5-50" value="Create car&lt;br&gt;Change car&amp;nbsp;&lt;br&gt;stutus" style="edgeLabel;html=1;align=center;verticalAlign=middle;resizable=0;points=[];" parent="nWtQAn88ZrS0DdybVbt5-49" vertex="1" connectable="0">
          <mxGeometry x="0.0814" y="2" relative="1" as="geometry">
            <mxPoint as="offset" />
          </mxGeometry>
        </mxCell>
        <mxCell id="nWtQAn88ZrS0DdybVbt5-37" value="SupplierOrderManager" style="rounded=1;whiteSpace=wrap;html=1;fillColor=#d5e8d4;strokeColor=#82b366;" parent="1" vertex="1">
          <mxGeometry x="530" y="310" width="150" height="60" as="geometry" />
        </mxCell>
        <mxCell id="nWtQAn88ZrS0DdybVbt5-38" value="Supplier Order DB" style="shape=cylinder3;whiteSpace=wrap;html=1;boundedLbl=1;backgroundOutline=1;size=15;fillColor=#dae8fc;strokeColor=#6c8ebf;" parent="1" vertex="1">
          <mxGeometry x="520" y="380" width="65" height="60" as="geometry" />
        </mxCell>
        <mxCell id="nWtQAn88ZrS0DdybVbt5-41" value="Purchase&lt;div&gt;OrderDB&lt;/div&gt;" style="shape=cylinder3;whiteSpace=wrap;html=1;boundedLbl=1;backgroundOutline=1;size=15;fillColor=#dae8fc;strokeColor=#6c8ebf;" parent="1" vertex="1">
          <mxGeometry x="510" y="630" width="60" height="70" as="geometry" />
        </mxCell>
        <mxCell id="nWtQAn88ZrS0DdybVbt5-46" style="rounded=0;orthogonalLoop=1;jettySize=auto;html=1;exitX=0.75;exitY=1;exitDx=0;exitDy=0;entryX=0.841;entryY=0.037;entryDx=0;entryDy=0;entryPerimeter=0;" parent="1" source="nWtQAn88ZrS0DdybVbt5-37" target="nWtQAn88ZrS0DdybVbt5-5" edge="1">
          <mxGeometry relative="1" as="geometry" />
        </mxCell>
        <mxCell id="nWtQAn88ZrS0DdybVbt5-51" value="Chenge order&lt;div&gt;&amp;nbsp;status&lt;/div&gt;" style="edgeLabel;html=1;align=center;verticalAlign=middle;resizable=0;points=[];" parent="nWtQAn88ZrS0DdybVbt5-46" vertex="1" connectable="0">
          <mxGeometry x="0.1068" y="1" relative="1" as="geometry">
            <mxPoint y="15" as="offset" />
          </mxGeometry>
        </mxCell>
      </root>
    </mxGraphModel>
  </diagram>
</mxfile>
